<?xml version="1.0" encoding="utf-8"?>
<!-- Generator: Adobe Illustrator 23.0.1, SVG Export Plug-In . SVG Version: 6.00 Build 0)  -->
<svg version="1.1" id="Слой_1" xmlns="http://www.w3.org/2000/svg" xmlns:xlink="http://www.w3.org/1999/xlink" x="0px" y="0px"
     viewBox="0 0 919.1 917.2" style="enable-background:new 0 0 919.1 917.2;" xml:space="preserve">
<style type="text/css">
	.st0{clip-path:url(#SVGID_4_);}
	.st1{clip-path:url(#SVGID_5_);}
	.st2{clip-path:url(#SVGID_6_);}
</style>
    <title>123</title>
    <g>
	<defs>
		<rect id="SVGID_1_" y="0" width="919.1" height="917.1"/>
	</defs>
        <defs>
		<path id="SVGID_2_" d="M459.5,917.1c256,0,463.1-208.8,459.5-465.1C915.6,205,713.6,3.5,466.1,0C209.3-3.5,0,203.2,0,458.6
			C0,711.9,205.7,917.2,459.5,917.1L459.5,917.1z M256.8,242.5v156c23.8-28.3,52.3-42.5,85.4-42.6c17.1,0,32.3,3.2,46,9.7
			c13.7,6.5,24,14.6,30.9,24.6c6.9,10,11.8,21.3,14.2,33.3c2.5,12.1,3.8,30.9,3.8,56.4v166.8h-74V496.4c0-29.8-1.3-48.7-4.1-56.7
			c-2.7-7.9-7.9-14.6-14.9-19.1c-7.1-4.8-16-7.2-26.7-7.2c-11.6-0.2-23,3-32.8,9.1c-9.7,6.1-16.8,15.2-21.2,27.5s-6.8,30.3-6.7,54.2
			l-0.1,142.4h-73.9V242.5H256.8z M548,242.5v156c23.8-28.3,52.3-42.5,85.4-42.6c17,0,32.3,3.2,46.1,9.7c13.7,6.5,24,14.7,30.8,24.6
			c7,10,11.8,21.3,14.2,33.3c2.5,12.1,3.8,30.9,3.8,56.4v166.8h-73.8V496.4c0-29.8-1.4-48.7-4.2-56.7c-2.6-7.9-7.9-14.6-14.8-19.1
			c-7.1-4.8-16-7.2-26.7-7.2c-11.6-0.2-23,3-32.8,9.1c-9.6,6.1-16.7,15.3-21.2,27.5c-4.5,12.2-6.7,30.3-6.7,54.2v142.4h-73.9V242.5
			H548z"/>
	</defs>
        <defs>
		<rect id="SVGID_3_" y="0" width="919.1" height="917.1"/>
	</defs>
        <clipPath id="SVGID_4_">
		<use xlink:href="#SVGID_1_"  style="overflow:visible;"/>
	</clipPath>
        <clipPath id="SVGID_5_" class="st0">
		<use xlink:href="#SVGID_2_"  style="overflow:visible;"/>
	</clipPath>
        <clipPath id="SVGID_6_" class="st1">
		<use xlink:href="#SVGID_3_"  style="overflow:visible;"/>
	</clipPath>
        <g class="st2">
		<rect x="-31.4" y="-27.1" width="1011" height="1008.8"/>
	</g>
</g>
</svg>
